<svg xmlns="http://www.w3.org/2000/svg" width="297" height="108.932" viewBox="0 0 297 108.932"><g transform="translate(0 0.01)"><path d="M304.716,80.807a3.392,3.392,0,0,0-2.853,1.552l-13.555.122v-.045a17.666,17.666,0,0,0-.8-3.712l-.2-.6-.462.423a18.859,18.859,0,0,1-2.424,1.821l-.25.16.071.289a14.812,14.812,0,0,1-.571,9.085v.051h-.051a22.986,22.986,0,0,0-10.169-3.071h-.68l-.1,3.687h.686a20.114,20.114,0,0,1,5.892,1.353,17.949,17.949,0,0,1,2.565,1.282h.045v.038a18.213,18.213,0,0,1-1.776,2.071,19.876,19.876,0,0,1-4.873,3.6l-.609.289,1.564,3.341.641-.295c.43-.2,10.611-5.065,11.592-16.029v-.045l13.522-.122a3.392,3.392,0,1,0,2.847-5.238" transform="translate(-97.84 -28.682)" fill="#f89732"></path><path d="M306.577,64.764a3.386,3.386,0,0,0-1.924.6L291.9,60.238v-.045a18.225,18.225,0,0,0,.641-3.732l.051-.641-.6.212a18.159,18.159,0,0,1-2.9.769l-.289.051-.045.295a14.779,14.779,0,0,1-3.988,8.188l-.038.038v-.045a23.082,23.082,0,0,0-8.226-6.7l-.641-.276-1.488,3.353.641.282a20.122,20.122,0,0,1,4.937,3.5,17.669,17.669,0,0,1,1.923,2.154v.038h-.045a18.374,18.374,0,0,1-2.436,1.237,20.325,20.325,0,0,1-5.886,1.468l-.641.032.167,3.68h.641c.475,0,11.74-.641,16.825-10.393v-.038L303.223,68.8a3.392,3.392,0,1,0,3.334-4.014" transform="translate(-97.912 -20.681)" fill="#f89732"></path><path d="M314.017,49.521a3.308,3.308,0,0,0-.731.083l-9.958-9.714v-.032a17.849,17.849,0,0,0,2.045-3.206l.289-.564h-.641a18.369,18.369,0,0,1-2.975-.4l-.295-.064-.147.256a14.865,14.865,0,0,1-2.167,2.821A14.491,14.491,0,0,1,294.8,41.91h-.045v-.051A23.025,23.025,0,0,0,289.7,32.5l-.462-.494-2.68,2.565.468.494a20.005,20.005,0,0,1,3.206,5.129A18,18,0,0,1,291.2,42.9v.051h-.051a18.676,18.676,0,0,1-2.725.218h-.09a20.1,20.1,0,0,1-5.886-.91l-.641-.224-1.244,3.469.641.224a22.787,22.787,0,0,0,7.162,1.122,18.594,18.594,0,0,0,12.356-4.3h.032l9.945,9.7a3.2,3.2,0,0,0-.07.68,3.392,3.392,0,1,0,3.392-3.392" transform="translate(-100.671 -12.137)" fill="#f89732"></path><path d="M409.494,116.815a23.084,23.084,0,0,0-7.451-1.212,18.594,18.594,0,0,0-12.1,4.148h-.032l-9.669-9.7a3.851,3.851,0,0,0,.071-.705,3.392,3.392,0,1,0-3.392,3.4,3.143,3.143,0,0,0,.712-.083l9.663,9.714v.032a17.952,17.952,0,0,0-2.09,3.206l-.295.558.641.038a18.5,18.5,0,0,1,2.969.436l.295.071.147-.263a14.929,14.929,0,0,1,2.18-2.834,14.5,14.5,0,0,1,4.681-3.142h.051v.051a23.134,23.134,0,0,0,4.924,9.419l.462.5,2.712-2.507-.462-.494a19.875,19.875,0,0,1-3.155-5.168,17.7,17.7,0,0,1-.9-2.725V119.5h.026a18.592,18.592,0,0,1,2.565-.18h.167a19.7,19.7,0,0,1,5.982.968l.641.231,1.282-3.45Z" transform="translate(-134.031 -38.672)" fill="#c1cd23"></path><path d="M393.5,135.68c-.244-.224-6.021-5.521-13.971-5.521a17.952,17.952,0,0,0-5.232.782h-.039l-5.194-12.535a3.4,3.4,0,1,0-3.43,1.366l5.219,12.586h-.039a18.476,18.476,0,0,0-3.142,2.135l-.481.41.571.269a19.236,19.236,0,0,1,2.565,1.552l.244.173.244-.18a14.66,14.66,0,0,1,3.1-1.757,14.486,14.486,0,0,1,5.521-1.122h.058v.064a23.141,23.141,0,0,0,.962,10.573l.231.641,3.456-1.282-.224-.641a19.518,19.518,0,0,1-.949-5.982,17.449,17.449,0,0,1,.205-2.866V134.3h.045a17.639,17.639,0,0,1,2.565.872,20.223,20.223,0,0,1,5.161,3.206l.494.462,2.507-2.706Z" transform="translate(-130.216 -41.213)" fill="#c1cd23"></path><path d="M369.9,146.976c-.2-.436-5.02-10.644-15.946-11.7h-.038V121.643a3.4,3.4,0,1,0-3.693-.032v13.676h-.045a18.46,18.46,0,0,0-3.719.782l-.609.192.423.468a17.652,17.652,0,0,1,1.8,2.4l.16.25.282-.071a15.069,15.069,0,0,1,3.584-.436,14.363,14.363,0,0,1,5.508,1.071h.051v.045a23.249,23.249,0,0,0-3.148,10.15v.673l3.68.135.032-.673a19.947,19.947,0,0,1,1.391-5.886,18.27,18.27,0,0,1,1.282-2.565v-.038l.039.032a18.36,18.36,0,0,1,2.058,1.782,20.022,20.022,0,0,1,3.565,4.905l.282.609,3.341-1.545Z" transform="translate(-124.099 -42.051)" fill="#c1cd23"></path><path d="M320.528,105.7a3.4,3.4,0,0,0-3.4,3.4,3.28,3.28,0,0,0,.09.75l-9.483,9.618H307.7a18.1,18.1,0,0,0-3.206-2.077l-.558-.282-.038.641a17.854,17.854,0,0,1-.417,2.969l-.058.295.25.154a14.669,14.669,0,0,1,2.821,2.186,14.431,14.431,0,0,1,3.206,4.661v.045h-.051a23.082,23.082,0,0,0-9.38,4.982l-.507.462,2.52,2.687.5-.455a19.563,19.563,0,0,1,5.129-3.206,18.449,18.449,0,0,1,2.719-.917h.045v.058a17.883,17.883,0,0,1,.205,2.725,20.058,20.058,0,0,1-.93,5.989l-.231.641,3.469,1.282.224-.641c.167-.449,3.988-11.041-3.065-19.543v-.032l9.509-9.618a3.392,3.392,0,1,0,.641-6.72" transform="translate(-107.56 -38.579)" fill="#78a22f"></path><path d="M341.785,149.075c0-.468-.532-11.727-10.259-16.889h-.038l5.129-12.593a3.392,3.392,0,1,0-3.995-3.334,3.334,3.334,0,0,0,.6,1.924L328.051,130.8h-.038a18.054,18.054,0,0,0-3.732-.705l-.641-.045.205.59a18.526,18.526,0,0,1,.744,2.9l.051.3.295.038a15,15,0,0,1,3.45.949,14.44,14.44,0,0,1,4.706,3.1l.038.038h-.038a23.237,23.237,0,0,0-6.784,8.188l-.282.641,3.36,1.52.282-.641a20.192,20.192,0,0,1,3.539-4.911,17.713,17.713,0,0,1,2.167-1.879l.038-.032v.045a18.415,18.415,0,0,1,1.225,2.443,20.815,20.815,0,0,1,1.391,5.508v.295h0v.09l.032.641,3.687-.147Z" transform="translate(-116.129 -41.149)" fill="#78a22f"></path><path d="M309.19,94.943a3.392,3.392,0,0,0-3.334,2.77L293.359,103v-.038a17.627,17.627,0,0,0-2.161-3.123l-.4-.481-.276.571a18.632,18.632,0,0,1-1.526,2.6l-.18.244.18.237a14.747,14.747,0,0,1,1.789,3.09,14.439,14.439,0,0,1,1.16,5.508v.006h-.051a21.016,21.016,0,0,0-3.039-.218,23.4,23.4,0,0,0-7.54,1.244l-.641.237,1.282,3.456.641-.237a20.242,20.242,0,0,1,5.969-.994h.237a18.15,18.15,0,0,1,2.629.192h.051v.051a18.15,18.15,0,0,1-.853,2.565,20.1,20.1,0,0,1-3.142,5.181l-.449.5,2.719,2.494.455-.507c.321-.346,7.88-8.726,4.616-19.235V106.3l12.471-5.27a3.392,3.392,0,1,0,1.924-6.187" transform="translate(-100.711 -34.682)" fill="#78a22f"></path><path d="M415.671,60.23l-.641.276c-.43.192-10.669,4.943-11.8,15.863v.038l-14.067-.064a3.392,3.392,0,1,0,0,3.687l14.035.064v.038a18.048,18.048,0,0,0,.75,3.725l.186.641.474-.423a18.021,18.021,0,0,1,2.411-1.782l.263-.16-.077-.289a14.875,14.875,0,0,1,4.431-14.452,20.469,20.469,0,0,1,4.924-3.533l.641-.276Z" transform="translate(-137.4 -22.263)" fill="#fec138"></path><path d="M411.251,97.162a19.729,19.729,0,0,1,5.905-1.391h.641l-.128-3.68H417c-.474,0-11.766.513-16.966,10.169v.032l-12.824-5.347a3.392,3.392,0,1,0-3.328,4.027,3.354,3.354,0,0,0,1.924-.609l12.766,5.335v.038a18.534,18.534,0,0,0-.718,3.725l-.064.641.6-.205a18.2,18.2,0,0,1,2.911-.725l.295-.051.051-.295a14.543,14.543,0,0,1,.975-3.437,14.286,14.286,0,0,1,3.129-4.693l.032-.038.032.045a23.422,23.422,0,0,0,8.137,6.841l.641.282,1.552-3.347-.641-.289a19.789,19.789,0,0,1-4.892-3.571,18.6,18.6,0,0,1-1.866-2.174V98.4h.045a17.312,17.312,0,0,1,2.449-1.205" transform="translate(-136.526 -33.695)" fill="#fec138"></path><path d="M439.256,26.647l-.987.2a17.717,17.717,0,0,1-3.065.244,20.659,20.659,0,0,1-2.879-.205,14.51,14.51,0,0,1-12.606-17.19,20.188,20.188,0,0,1,1.821-5.655l.494-.885L418.232,1l-.507.891c-.237.423-5.63,10.317-.186,19.877L403.9,31.777a3.8,3.8,0,0,0-1.167-.186,3.738,3.738,0,1,0,3.738,3.738h0l13.689-10.022A20.025,20.025,0,0,0,435.2,31.456a21.377,21.377,0,0,0,3.969-.34l1-.212Z" transform="translate(-143.166 -1.01)" fill="#fec138"></path><path d="M328.145,38.18l-5.527-12.824h.032a18.261,18.261,0,0,0,3.11-2.206l.481-.423-.571-.263a18.285,18.285,0,0,1-2.616-1.513l-.244-.167-.237.18a14.622,14.622,0,0,1-3.078,1.808,14.439,14.439,0,0,1-5.508,1.186h-.051v-.051a23.2,23.2,0,0,0-1.1-10.567l-.244-.641-3.437,1.327.244.641a20.184,20.184,0,0,1,1.026,5.95,18.094,18.094,0,0,1-.167,2.866v.051h-.045a18.161,18.161,0,0,1-2.6-.834,20.023,20.023,0,0,1-5.2-3.11l-.5-.442-2.488,2.719.507.455a22.354,22.354,0,0,0,13.8,5.328A17.956,17.956,0,0,0,319.2,26.8h.037L324.8,39.674a3.34,3.34,0,0,0-.558,1.859,3.392,3.392,0,1,0,3.937-3.353" transform="translate(-107.439 -5.208)" fill="#eb742d"></path><path d="M350.655,19.338l.6-.205-.43-.462a18.413,18.413,0,0,1-1.834-2.392l-.16-.237-.282.071a14.812,14.812,0,0,1-3.539.481h-.25a14.452,14.452,0,0,1-5.3-.987h-.051v-.045a23.461,23.461,0,0,0,3.007-10.188v-.68L338.73,4.61V5.3a20.174,20.174,0,0,1-1.314,5.9,17.5,17.5,0,0,1-1.282,2.565V13.8h-.038a18.177,18.177,0,0,1-2.077-1.757,19.763,19.763,0,0,1-3.629-4.86l-.25-.628L326.81,8.136l.295.609c.205.43,5.129,10.573,16.106,11.477h.038l.224,13.991a3.385,3.385,0,1,0,3.687-.077l-.224-13.971h.045a18.6,18.6,0,0,0,3.674-.827" transform="translate(-117.267 -2.305)" fill="#eb742d"></path><path d="M389.544,15.4l-.5.474a19.965,19.965,0,0,1-5.091,3.257,15.023,15.023,0,0,1-11.881.436,14.414,14.414,0,0,1-4.751-3.033l-.038-.032.038-.032a22.84,22.84,0,0,0,6.668-8.284l.276-.641L370.88,6.059l-.269.641a20.043,20.043,0,0,1-3.469,4.969,18.042,18.042,0,0,1-2.135,1.924h-.038v-.038a18.6,18.6,0,0,1-1.282-2.43,19.792,19.792,0,0,1-1.5-5.873l-.045-.641-3.68.192.026.7c0,.474.712,11.734,10.509,16.754h.038l-5.1,12.881a3.424,3.424,0,1,0,3.4,1.372L372.431,23.6h.039a18.024,18.024,0,0,0,4.931.705c8.169,0,13.946-5.546,14.183-5.771l.494-.462Z" transform="translate(-128.623 -2.305)" fill="#eb742d"></path><path d="M27.321,53.157a23.723,23.723,0,0,1,10.387,2.161L39.4,49.848c-1.77-.923-5.924-2.308-12.317-2.308C11,47.534,0,58.466,0,74.764c0,17.081,10.9,26.288,25.551,26.288,6.316,0,11.317-1.231,13.7-2.462L37.964,93.2a27.339,27.339,0,0,1-11,2.154c-12.541,0-19.877-8.079-19.877-20.851-.032-13.587,8.072-21.351,20.236-21.351" transform="translate(0 -17.71)" fill="#45545c"></path><path d="M91.1,47.41c-13.856,0-24.012,10.778-24.012,27.25,0,15.7,9.547,26.4,23.32,26.4,13.234,0,24.083-9.547,24.083-27.321,0-15.472-9.162-26.327-23.4-26.327m-.308,48.178c-10.618,0-16.619-9.925-16.619-21.082,0-11.31,5.54-21.627,16.671-21.627s16.587,10.772,16.587,21.159c0,11.778-6,21.55-16.626,21.55" transform="translate(-24.073 -17.663)" fill="#45545c"></path><path d="M180.757,47.84H142.35v5.694h15.779V99.711H164.9V53.534h15.856Z" transform="translate(-51.078 -17.17)" fill="#45545c"></path><path d="M239.528,100.721l-17.7-51.871h-8l-17.7,51.871h6.925L207.879,86.1a25.436,25.436,0,0,0,8.143,2.065l.423.038h3.738a25.609,25.609,0,0,0,7.367-1.6l4.8,14.106Zm-21.159-18.2h-.2a20.049,20.049,0,0,1-8.688-2.039l.346-1.282,5.078-15c1.077-3.161,1.847-6.412,2.616-9.387h.154c.769,3,1.532,6.072,2.693,9.464L225.5,79.2l.468,1.872a20.037,20.037,0,0,1-7.63,1.475" transform="translate(-70.372 -18.18)" fill="#45545c"></path><path d="M0,149.39H6.861v1.622H1.847v3.777h4.8v1.629h-4.8V162.3H0Z" transform="translate(0 -53.608)" fill="#45545c"></path><path d="M17.3,155.47a4.657,4.657,0,0,1,4.79,4.943,4.809,4.809,0,0,1-9.618,0,4.663,4.663,0,0,1,4.815-4.943m0,8.476c2.039,0,2.943-1.847,2.943-3.533,0-1.8-1.1-3.533-2.943-3.533s-2.962,1.744-2.962,3.533c0,1.686.9,3.533,2.962,3.533" transform="translate(-4.475 -56.437)" fill="#45545c"></path><path d="M30.28,155.7h1.629v1.468h.038a2.866,2.866,0,0,1,2.462-1.686,4.7,4.7,0,0,1,1.141.135v1.552a2.52,2.52,0,0,0-.962-.173c-1.552,0-2.565,1.481-2.565,3.847v4.3H30.28Z" transform="translate(-10.865 -56.441)" fill="#45545c"></path><path d="M51.642,155.47a4.658,4.658,0,0,1,4.8,4.943,4.809,4.809,0,0,1-9.618,0,4.661,4.661,0,0,1,4.809-4.943m0,8.476c2.039,0,2.943-1.847,2.943-3.533,0-1.8-1.09-3.533-2.943-3.533s-2.962,1.744-2.962,3.533c0,1.686.9,3.533,2.962,3.533" transform="translate(-16.8 -56.437)" fill="#45545c"></path><rect width="1.744" height="13.875" transform="translate(41.651 94.814)" fill="#45545c"></rect><path d="M78.147,161.441h-.038A3.8,3.8,0,0,1,74.9,163c-2.847,0-4.052-2.565-4.052-5.129s1.334-4.777,4.072-4.777a3.384,3.384,0,0,1,3.129,1.52h.038V148.9h1.738v13.875H78.159Zm-2.847.147c1.962,0,2.776-1.924,2.776-3.52,0-1.75-.9-3.552-2.8-3.552s-2.629,1.782-2.565,3.5c-.038,1.475.737,3.565,2.61,3.565" transform="translate(-25.423 -54.08)" fill="#45545c"></path><path d="M95.487,164.727a7.271,7.271,0,0,1-2.981.609c-3.347,0-4.886-2.039-4.886-5.129,0-2.8,1.757-4.777,4.424-4.777,3.148,0,4.161,2.3,4.161,5.335H89.473a3.09,3.09,0,0,0,3.11,3.142,5.533,5.533,0,0,0,2.9-.949ZM94.359,159.5a2.382,2.382,0,0,0-2.347-2.635,2.659,2.659,0,0,0-2.565,2.635Z" transform="translate(-31.44 -56.423)" fill="#45545c"></path><path d="M103.82,155.7h1.629v1.468h.038a2.866,2.866,0,0,1,2.462-1.686,4.706,4.706,0,0,1,1.148.135v1.552a2.526,2.526,0,0,0-.962-.173c-1.552,0-2.565,1.481-2.565,3.847v4.3h-1.738Z" transform="translate(-37.253 -56.441)" fill="#45545c"></path><path d="M124.932,150.4h1.924l5.456,12.913H130.3l-1.282-3.251h-6.328l-1.314,3.251H119.45Zm.9,1.738-2.565,6.412H128.4Z" transform="translate(-42.861 -54.618)" fill="#45545c"></path><path d="M150.335,165.255h-1.68v-1.5h-.038a3.386,3.386,0,0,1-3.084,1.718c-2.443,0-3.533-1.513-3.533-4.052v-5.61h1.738V160.7c0,2.2.481,3.27,2,3.366,1.981,0,2.866-1.6,2.866-3.886V155.81h1.731Z" transform="translate(-50.953 -56.559)" fill="#45545c"></path><path d="M158.107,163.279a4.662,4.662,0,0,0,2.167.641c.8,0,1.776-.333,1.776-1.346,0-1.718-4.091-1.571-4.091-4.219,0-1.956,1.462-2.9,3.328-2.9a7.457,7.457,0,0,1,2.167.372l-.147,1.52a5.027,5.027,0,0,0-1.834-.487c-.891,0-1.667.378-1.667,1.154,0,1.924,4.091,1.366,4.091,4.379,0,2.02-1.609,2.943-3.3,2.943a5.4,5.4,0,0,1-2.565-.519Z" transform="translate(-56.68 -56.43)" fill="#45545c"></path><path d="M174.487,155.678h-2.5v5.129a1.494,1.494,0,0,0,1.462,1.68,2.155,2.155,0,0,0,1.186-.333v1.481a5.674,5.674,0,0,1-1.481.256c-1.8,0-2.9-.853-2.9-2.738v-5.476H168.12v-1.411h2.129v-2.18l1.738-.558v2.738h2.5Z" transform="translate(-60.325 -55.024)" fill="#45545c"></path><path d="M181.17,155.7H182.8v1.468h.038a2.86,2.86,0,0,1,2.456-1.686,4.7,4.7,0,0,1,1.148.135v1.552a2.526,2.526,0,0,0-.962-.173c-1.552,0-2.565,1.481-2.565,3.847v4.3h-1.738Z" transform="translate(-65.008 -56.441)" fill="#45545c"></path><path d="M192.2,156.361a5.976,5.976,0,0,1,3.11-.891c2.7,0,3.789,1.334,3.789,3.9v3.9a15.037,15.037,0,0,0,.077,1.847h-1.629V163.9h-.038a3.482,3.482,0,0,1-2.917,1.443c-2.039,0-3.456-.885-3.456-2.943,0-2.366,2.565-3.1,4.386-3.1.686,0,1.167,0,1.853.032,0-1.629-.59-2.462-2.334-2.462a4.488,4.488,0,0,0-2.738.962Zm5.161,4.27c-.372,0-.744-.032-1.109-.032-.943,0-3.276.147-3.276,1.808a1.661,1.661,0,0,0,1.757,1.539,2.383,2.383,0,0,0,2.629-2.475Z" transform="translate(-68.585 -56.437)" fill="#45545c"></path><rect width="1.738" height="13.875" transform="translate(133.5 94.814)" fill="#45545c"></rect><path d="M217.732,151.436H215.77V149.48h1.962Zm-1.853,2.109h1.744v9.438h-1.744Z" transform="translate(-77.423 -54.288)" fill="#45545c"></path><path d="M223.4,156.361a5.982,5.982,0,0,1,3.11-.891c2.7,0,3.789,1.334,3.789,3.9v3.9a14.2,14.2,0,0,0,.077,1.847h-1.629V163.9h-.038a3.507,3.507,0,0,1-2.924,1.443c-2.033,0-3.456-.885-3.456-2.943,0-2.366,2.565-3.1,4.386-3.1.686,0,1.167,0,1.853.032,0-1.629-.59-2.462-2.334-2.462a4.45,4.45,0,0,0-2.738.962Zm5.161,4.27c-.372,0-.744-.032-1.109-.032-.943,0-3.276.147-3.276,1.808a1.661,1.661,0,0,0,1.757,1.539,2.383,2.383,0,0,0,2.629-2.475Z" transform="translate(-79.777 -56.437)" fill="#45545c"></path><path d="M239.09,155.7h1.686v1.5h.038a3.392,3.392,0,0,1,3.09-1.718c2.443,0,3.533,1.513,3.533,4.052v5.6H245.7v-4.886c0-2.2-.481-3.276-2-3.373-1.981,0-2.866,1.6-2.866,3.892v4.366H239.09Z" transform="translate(-85.791 -56.439)" fill="#45545c"></path><path d="M255.261,163.279a4.674,4.674,0,0,0,2.167.641c.795,0,1.776-.333,1.776-1.346,0-1.718-4.084-1.571-4.084-4.219,0-1.956,1.462-2.9,3.328-2.9a7.394,7.394,0,0,1,2.161.372l-.147,1.52a5.047,5.047,0,0,0-1.834-.487c-.891,0-1.667.378-1.667,1.154,0,1.924,4.091,1.366,4.091,4.379,0,2.02-1.609,2.943-3.289,2.943a5.418,5.418,0,0,1-2.565-.519Z" transform="translate(-91.543 -56.43)" fill="#45545c"></path></g></svg>